@startuml

package com.stalary.pf.consumer {
  class ConsumerApplicationTests {
    +contextLoads() : void
  }
  class ConsumerApplication {
    +main() : void
  }
}

package com.stalary.pf.consumer.client {
  interface ResumeClient {
  }
  interface MessageClient {
  }
  interface RecruitClient {
  }
  interface UserClient {
  }
  interface OutsideClient {
  }
  interface PushClient {
  }
}

package com.stalary.pf.consumer.config {
  class FeignConfig {
    +feignRetryer() : Retryer
  }
}

package com.stalary.pf.consumer.data.constant {
  class Constant {
    -SEND_RESUME : String
    -HANDLE_RESUME : String
    -RECEIVE_RESUME : String
  }
}

package com.stalary.pf.consumer.data.dto {
  class Message {
    -fromId : Long
    -toId : Long
    -title : String
    -content : String
    -readState : Boolean
  }
  class Recruit {
    -hrId : Long
  }
  class SendResume {
    -userId : Long
    -recruitId : Long
    -title : String
    -time : LocalDateTime
  }
  class Email {
    -email : String
    -title : String
    -content : String
  }
  class ResponseMessage {
    -code : int
    -msg : String
    -success : boolean
    -data : T
    +error() : ResponseMessage
    +successMessage() : <T>ResponseMessage
    +successMessage() : ResponseMessage
    +failedMessage() : ResponseMessage
    +failedMessage() : ResponseMessage
  }
  class UserInfo {
    -userId : Long
    -username : String
    -nickname : String
    -sex : String
    -introduce : String
    -address : String
    -intentionCompany : String
    -endTime : Integer
    -school : String
    -education : String
  }
}

package com.stalary.pf.consumer.service {
  class Consumer <<Service>> {
    -resumeClient : ResumeClient
    -pushClient : PushClient
    -messageClient : MessageClient
    -recruitClient : RecruitClient
    -userClient : UserClient
    -outsideClient : OutsideClient
    +setResumeClient() : void
    +setPushClient() : void
    +setMessageClient() : void
    +process() : void
  }
}

package com.stalary.pf.gateway {
  class GatewayApplicationTests {
    +contextLoads() : void
  }
  class GatewayApplication {
    +main() : void
    +errorWebExceptionHandler() : ErrorWebExceptionHandler
  }
}

package com.stalary.pf.gateway.client {
  interface UserCenterClient {
  }
}

package com.stalary.pf.gateway.config {
  class FeignConfig {
    +feignRetryer() : Retryer
  }
  class CorsConfig {
    -MAX_AGE : String
    +corsFilter() : WebFilter
    +serverCodecConfigurer() : ServerCodecConfigurer
    +discoveryClientRouteDefinitionLocator() : RouteDefinitionLocator
  }
}

package com.stalary.pf.gateway.data {
  class User {
    -id : Long
  }
  class ResponseMessage {
    -code : int
    -msg : String
    -success : boolean
    -data : T
    +error() : ResponseMessage
    +successMessage() : <T>ResponseMessage
    +successMessage() : ResponseMessage
    +failedMessage() : ResponseMessage
    +failedMessage() : ResponseMessage
  }
  class ProjectInfo {
    -projectId : Long
    -key : String
  }
}

package com.stalary.pf.gateway.exception {
  class MyException {
    -code : Integer
  }
  class ExceptionHandle {
    -viewResolvers : List<ViewResolver>
    +setMessageReaders() : void
    +setViewResolvers() : void
    +setMessageWriters() : void
    +handle() : Mono<Void>
    +renderErrorResponse() : Mono<ServerResponse>
    +viewResolvers() : List<ViewResolver>
  }
  enum ResultEnum {
    -code : Integer
    -msg : String
  }
}

package com.stalary.pf.gateway.filter {
  class AuthFilter {
    -userCenterClient : UserCenterClient
    -projectKey : String
    -authArray : String[]
    +filter() : Mono<Void>
    +getOrder() : int
  }
}

package com.stalary.pf.message {
  class MessageApplicationTests {
    +contextLoads() : void
  }
  class MessageApplication {
    +main() : void
  }
}

package com.stalary.pf.message.client {
  interface PushClient {
  }
}

package com.stalary.pf.message.controller {
  class MessageController <<Controller>> {
    -messageService : MessageService
    +saveMessage() : ResponseMessage
    +getMessage() : ResponseMessage
    +readMessage() : ResponseMessage
    +getSendMessage() : ResponseMessage
    +sendCount() : ResponseMessage
    +getNotReadCount() : ResponseMessage
  }
}

package com.stalary.pf.message.data.dto {
  class ReadMessage {
    -id : Long
    -userId : Long
  }
  class User {
    -id : Long
    -username : String
    -nickname : String
    -phone : String
    -password : String
    -email : String
    -projectId : Long
    -role : Integer
    -firstId : Long
    -code : String
  }
  class ProjectInfo {
    -projectId : Long
    -key : String
  }
}

package com.stalary.pf.message.data.entity {
  class MessageEntity <<Entity>> {
    -id : Long
    -fromId : Long
    -toId : Long
    -title : String
    -content : String
    -readState : Boolean
    -updateTime : Date
    -createTime : Date
  }
}

package com.stalary.pf.message.data.vo {
  class ResponseMessage {
    -code : int
    -msg : String
    -success : boolean
    -data : T
    +enumError() : ResponseMessage
    +error() : ResponseMessage
    +successMessage() : <T>ResponseMessage
    +successMessage() : ResponseMessage
    +failedMessage() : ResponseMessage
    +failedMessage() : ResponseMessage
  }
}

package com.stalary.pf.message.exception {
  class MyException {
    -code : Integer
  }
  class ExceptionHandle {
    +handle() : ResponseMessage
  }
  enum ResultEnum {
    -code : Integer
    -msg : String
  }
}

package com.stalary.pf.message.repo {
  interface MessageRepo <<Repository>> {
  }
}

package com.stalary.pf.message.service {
  class MessageService <<Service>> {
    -repo : MessageRepo
    -pushClient : PushClient
    +findByToId() : List<MessageEntity>
    +findByFromId() : List<MessageEntity>
    +save() : MessageEntity
    +findNotRead() : List<MessageEntity>
    +read() : void
    +sendCount() : void
  }
}

package com.stalary.pf.message.util {
  class UserUtil {
    +getUserId() : Long
  }
}

package com.stalary.pf.outside {
  class OutsideApplicationTests {
    +contextLoads() : void
  }
  class OutsideApplication {
    +main() : void
  }
}

package com.stalary.pf.outside.client {
  interface UserClient {
  }
}

package com.stalary.pf.outside.config {
  class PrefixRedisSerializer {
    -prefix : String
    -charset : Charset
    +deserialize() : String
    +serialize() : byte[]
  }
  class CacheConfig {
    +stringRedisTemplate() : StringRedisTemplate
    +errorHandler() : CacheErrorHandler
    +handleCacheGetError() : void
    +handleCachePutError() : void
    +handleCacheEvictError() : void
    +handleCacheClearError() : void
  }
  class FeignConfig {
    +feignRetryer() : Retryer
  }
}

package com.stalary.pf.outside.controller {
  class OutsideController <<Controller>> {
    -smsService : SmsService
    -userService : UserService
    -mailService : MailService
    +code() : ResponseMessage
    +upload() : ResponseMessage
    +sendEmail() : ResponseMessage
  }
}

package com.stalary.pf.outside.data {
  class Email {
    -email : String
    -title : String
    -content : String
  }
  class ResponseMessage {
    -code : int
    -msg : String
    -success : boolean
    -data : T
    +enumError() : ResponseMessage
    +error() : ResponseMessage
    +successMessage() : <T>ResponseMessage
    +successMessage() : ResponseMessage
    +failedMessage() : ResponseMessage
    +failedMessage() : ResponseMessage
  }
  class Constant {
    -SPLIT : String
    -OK : String
    -USER_AVATAR : String
    -PHONE_CODE : String
    -RECEIVE_RESUME : String
    -JOINER : Joiner
    +getKey() : String
  }
  class UploadAvatar {
    -userId : Long
    -avatar : String
  }
}

package com.stalary.pf.outside.exception {
  class MyException {
    -code : Integer
  }
  class ExceptionHandle {
    +handle() : ResponseMessage
  }
  enum ResultEnum {
    -code : Integer
    -msg : String
  }
}

package com.stalary.pf.outside.service {
  class UserService <<Service>> {
    -userClient : UserClient
    -qiNiuService : QiNiuService
    +uploadAvatar() : ResponseMessage
  }
  class QiNiuService <<Service>> {
    -ACCESS_KEY : String
    -SECRET_KEY : String
    -BUCKET_NAME : String
    -QINIU_IMAGE_DOMAIN : String
    -auth : Auth
    -uploadManager : UploadManager
    +uploadPicture() : String
  }
  class MailService <<Service>> {
    -SSL_FACTORY : String
    -from : String
    -psw : String
    -host : String
    -username : String
    -password : String
    +sendEmail() : void
    +getPasswordAuthentication() : PasswordAuthentication
  }
  class SmsService <<Service>> {
    -redis : StringRedisTemplate
    -PRODUCT : String
    -DOMAIN : String
    -ACCESS_KEY_ID : String
    -ACCESS_KEY_SECRET : String
    +sendCode() : String
  }
}

package com.stalary.pf.outside.util {
  class UserUtil {
    +getUserId() : Long
  }
}

package com.stalary.pf.push {
  class PushApplicationTests {
    -redisTemplate : StringRedisTemplate
    +testRedis() : void
  }
  class PushApplication {
    +main() : void
  }
}

package com.stalary.pf.push.config {
  class PrefixRedisSerializer {
    -prefix : String
    -charset : Charset
    +deserialize() : String
    +serialize() : byte[]
  }
  class CacheConfig {
    +stringRedisTemplate() : StringRedisTemplate
    +errorHandler() : CacheErrorHandler
    +handleCacheGetError() : void
    +handleCachePutError() : void
    +handleCacheEvictError() : void
    +handleCacheClearError() : void
  }
  class WebSocketConfig {
    +serverEndpointExporter() : ServerEndpointExporter
  }
}

package com.stalary.pf.push.controller {
  class FacadeController <<Controller>> {
    -webSocketService : WebSocketService
    +sendMessage() : void
  }
}

package com.stalary.pf.push.service {
  class WebSocketService <<Service>> {
    -redis : StringRedisTemplate
    -userId : Long
    -session : Session
    -message : String
    +setRedis() : void
    +onOpen() : void
    +onClose() : void
    +onError() : void
    +onMessage() : void
    +messageBroadcast() : void
  }
  class MessageService <<Service>> {
    -MESSAGE_CHANNEL : String
    -CLOSE_CHANNEL : String
    -webSocketService : WebSocketService
    -userId : Long
    -message : String
    +receiveMessage() : void
  }
}

package com.stalary.pf.recruit {
  class RecruitApplicationTests {
    +contextLoads() : void
  }
  class RecruitApplication {
    +main() : void
  }
}

package com.stalary.pf.recruit.client {
  interface ResumeClient {
  }
  interface UserClient {
  }
}

package com.stalary.pf.recruit.config {
  class PrefixRedisSerializer {
    -prefix : String
    -charset : Charset
    +deserialize() : String
    +serialize() : byte[]
  }
  class CacheConfig {
    +stringRedisTemplate() : StringRedisTemplate
    +errorHandler() : CacheErrorHandler
    +handleCacheGetError() : void
    +handleCachePutError() : void
    +handleCacheEvictError() : void
    +handleCacheClearError() : void
  }
  class FeignConfig {
    +feignRetryer() : Retryer
  }
}

package com.stalary.pf.recruit.controller {
  class CompanyController <<Controller>> {
    -recruitService : RecruitService
    +allCompany() : ResponseMessage
    +allCompanyName() : ResponseMessage
    +allCompanyNoPage() : ResponseMessage
    +addCompany() : ResponseMessage
    +getInfo() : ResponseMessage
  }
  class RecruitController <<Controller>> {
    -recruitService : RecruitService
    +add() : ResponseMessage
    +delete() : ResponseMessage
    +allRecruit() : ResponseMessage
    +getRecruitById() : ResponseMessage
    +allRecruitName() : ResponseMessage
    +recruitList() : ResponseMessage
    +getInfo() : ResponseMessage
    +getHrInfo() : ResponseMessage
  }
}

package com.stalary.pf.recruit.data.constant {
  class Constant {
    -SPLIT : String
    -SEND_RESUME : String
    -HANDLE_RESUME : String
    -RECEIVE_RESUME : String
    -COMPANY_REDIS_PREFIX : String
    -RECRUIT_REDIS_PREFIX : String
    -JOINER : Joiner
    +getKey() : String
  }
}

package com.stalary.pf.recruit.data.dto {
  class ResumeRate {
    -userId : Long
    -recruitId : Long
    -rate : Integer
  }
  class SkillRule {
    -name : String
    -weight : Integer
  }
  class SendResume {
    -userId : Long
    -recruitId : Long
    -title : String
    -time : LocalDateTime
  }
  class GetResumeRate {
    -getList : List<GetRate>
    -userId : Long
    -recruit : RecruitDto
  }
  class RecruitDto {
    -id : Long
    -skillList : List<SkillRule>
  }
  class User {
    -id : Long
    -username : String
    -nickname : String
    -phone : String
    -password : String
    -email : String
    -projectId : Long
    -role : Integer
    -firstId : Long
    -code : String
  }
  class UserInfo {
    -userId : Long
    -name : String
    -school : String
    -education : String
    -intentionCompany : String
    -intentionJob : String
  }
  class CompanyAndJob {
    -recruitId : Long
    -company : String
    -job : String
  }
  class RecommendUser {
    -recruitId : Long
    -userList : List<UserInfo>
  }
}

package com.stalary.pf.recruit.data.entity {
  class RecruitEntity <<Entity>> {
    -companyId : Long
    -hrId : Long
    -content : String
    -title : String
    -skillList : List<SkillRule>
    -skillStr : String
    +serializeFields() : void
    +deserializeFields() : void
  }
  class BaseEntity {
    -id : Long
    -updateTime : Date
    -createTime : Date
  }
  class CompanyEntity <<Entity>> {
    -name : String
    -address : String
    -avatar : String
    -introduce : String
    -scale : String
    -type : String
  }
}

package com.stalary.pf.recruit.data.vo {
  class RecruitAndCompany {
    -recruit : RecruitEntity
    -company : CompanyEntity
  }
  class ResponseMessage {
    -code : int
    -msg : String
    -success : boolean
    -data : T
    +error() : ResponseMessage
    +successMessage() : <T>ResponseMessage
    +successMessage() : ResponseMessage
    +failedMessage() : ResponseMessage
    +failedMessage() : ResponseMessage
  }
  class HR {
    -userId : Long
    -nickname : String
    -username : String
    -password : String
    -companyId : Long
    -phone : String
    -email : String
    -code : String
  }
  class RecruitAndHrAndCompany {
    -recruit : RecruitEntity
    -hr : HR
    -company : CompanyEntity
  }
  class RecommendRecruit {
    -recruitId : Long
    -title : String
    -companyName : String
  }
  class RecommendCandidate {
    -title : String
    -candidateList : List<Candidate>
  }
  class Candidate {
    -userId : Long
    -name : String
    -school : String
    -rate : Integer
    +init() : Candidate
  }
  class CompanyAndRecruit {
    -company : CompanyEntity
    -recruitList : List<RecruitEntity>
  }
}

package com.stalary.pf.recruit.exception {
  class MyException {
    -code : Integer
  }
  class ExceptionHandle {
    +handle() : ResponseMessage
  }
  class ExceptionThreadFactory {
    -namePrefix : String
    -id : AtomicInteger
    -daemon : boolean
    +newThread() : Thread
  }
  enum ResultEnum {
    -code : Integer
    -msg : String
  }
}

package com.stalary.pf.recruit.repo {
  interface BaseRepo {
  }
  interface CompanyRepo <<Repository>> {
  }
  interface RecruitRepo <<Repository>> {
  }
}

package com.stalary.pf.recruit.service {
  class RecruitService <<Service>> {
    -userClient : UserClient
    -resumeClient : ResumeClient
    -producer : Producer
    -redis : StringRedisTemplate
    -recruitRepo : RecruitRepo
    -companyRepo : CompanyRepo
    -exec : ExecutorService
    +getAllRecruitName() : Set<String>
    +getRecruitInfo() : RecruitAndHrAndCompany
    +saveRecruit() : RecruitEntity
    +deleteById() : void
    +getRecruitByUserId() : List<RecruitEntity>
    +getRecruitById() : RecruitEntity
    +getAllCompanyName() : List<String>
    +addCompany() : CompanyEntity
  }
}

package com.stalary.pf.recruit.util {
  class RecruitUtil {
    +getUserId() : Long
  }
}

package com.stalary.pf.resume {
  class ResumeApplicationTests {
    +contextLoads() : void
  }
  class ResumeApplication {
    +main() : void
  }
}

package com.stalary.pf.resume.annotation {
  interface UpdateTime {
  }
  interface AutoValue {
  }
  interface CreateTime {
  }
}

package com.stalary.pf.resume.client {
  interface RecruitClient {
  }
  interface UserClient {
  }
}

package com.stalary.pf.resume.config {
  class PrefixRedisSerializer {
    -prefix : String
    -charset : Charset
    +deserialize() : String
    +serialize() : byte[]
  }
  class CacheConfig {
    +stringRedisTemplate() : StringRedisTemplate
    +errorHandler() : CacheErrorHandler
    +handleCacheGetError() : void
    +handleCachePutError() : void
    +handleCacheEvictError() : void
    +handleCacheClearError() : void
  }
  class FeignConfig {
    +feignRetryer() : Retryer
  }
  class MongoEventListener {
    -mongo : MongoTemplate
    -source : Object
    +onBeforeConvert() : void
  }
}

package com.stalary.pf.resume.controller {
  class ResumeController <<Controller>> {
    -resumeService : ResumeService
    +save() : ResponseMessage
    +getResumeByUserId() : ResponseMessage
    +handleResume() : ResponseMessage
    +getRate() : ResponseMessage
    +getRateBatch() : ResponseMessage
  }
}

package com.stalary.pf.resume.data.constant {
  class Constant {
    -SPLIT : String
    -JOINER : Joiner
    +getKey() : String
  }
  class RedisKeys {
    -RESUME_SEND : String
    -RESUME_RECEIVE : String
  }
}

package com.stalary.pf.resume.data.dto {
  class ResumeRate {
    -userId : Long
    -recruitId : Long
    -rate : Integer
  }
  class SkillRule {
    -name : String
    -weight : Integer
  }
  class Recruit {
    -id : Long
    -skillList : List<SkillRule>
  }
  class SendResume {
    -userId : Long
    -recruitId : Long
    -title : String
    -time : LocalDateTime
  }
  class GetResumeRate {
    -getList : List<GetRate>
    -userId : Long
    -recruit : Recruit
  }
  class UserInfo {
    -userId : Long
    -username : String
    -nickname : String
    -sex : String
    -introduce : String
    -address : String
    -intentionCompany : String
    -endTime : Integer
    -school : String
    -education : String
  }
  class ReceiveResume {
    -title : String
    -name : String
    -userId : Long
    -rate : Integer
    -time : LocalDateTime
  }
}

package com.stalary.pf.resume.data.entity {
  class Skill {
    -name : String
    -level : int
    -resumeId : long
  }
  class Resume {
    -userId : Long
    -name : String
    -sex : String
    -age : int
    -skills : List<Skill>
    -school : String
    -address : String
    -endTime : int
    -phone : String
    -email : String
  }
  class BaseEntity {
    -id : long
    -updateTime : LocalDateTime
    -createTime : LocalDateTime
  }
  class SeqInfo {
    -id : String
    -collName : String
    -seqId : long
  }
}

package com.stalary.pf.resume.data.vo {
  class ResponseMessage {
    -code : int
    -msg : String
    -success : boolean
    -data : T
    +error() : ResponseMessage
    +successMessage() : <T>ResponseMessage
    +successMessage() : ResponseMessage
    +failedMessage() : ResponseMessage
    +failedMessage() : ResponseMessage
  }
}

package com.stalary.pf.resume.exception {
  class MyException {
    -code : Integer
  }
  class ExceptionHandle {
    +handle() : ResponseMessage
  }
  enum ResultEnum {
    -code : Integer
    -msg : String
  }
}

package com.stalary.pf.resume.repo {
  interface ResumeRepo <<Repository>> {
  }
  interface BaseRepo {
  }
  interface SkillRepo <<Repository>> {
  }
}

package com.stalary.pf.resume.service {
  class ResumeService <<Service>> {
    -mongo : MongoTemplate
    -skillRepo : SkillRepo
    -recruitClient : RecruitClient
    -userClient : UserClient
    -redis : StringRedisTemplate
    -resumeId : long
    +handleResume() : void
    +saveResume() : Resume
    +findByUserId() : Resume
    +batchCalculate() : List<ResumeRate>
    +calculate() : int
  }
  class BaseService {
    -repo : R
    +findOne() : T
    +save() : T
    +save() : void
    +deleteById() : void
    +delete() : void
  }
}

package com.stalary.pf.resume.util {
  class IdUtil {
    +getNextIdAndUpdate() : Long
    +getNextId() : Long
  }
}

package com.stalary.pf.user {
  class BaseTest {
    -userInfoService : UserInfoService
    -esRepo : UserEsRepo
    +testEs() : void
  }
  class UserApplication {
    +main() : void
  }
}

package com.stalary.pf.user.annotation {
  interface LoginRequired {
  }
}

package com.stalary.pf.user.client {
  interface MessageClient {
  }
  interface UserCenterClient {
  }
  interface RecruitClient {
  }
}

package com.stalary.pf.user.config {
  class PrefixRedisSerializer {
    -prefix : String
    -charset : Charset
    +deserialize() : String
    +serialize() : byte[]
  }
  class CacheConfig {
    +stringRedisTemplate() : StringRedisTemplate
    +errorHandler() : CacheErrorHandler
    +handleCacheGetError() : void
    +handleCachePutError() : void
    +handleCacheEvictError() : void
    +handleCacheClearError() : void
  }
  class WebConfig {
    +loginInterceptor() : LoginInterceptor
    +addInterceptors() : void
  }
  class FeignConfig {
    +feignRetryer() : Retryer
    +headerInterceptor() : RequestInterceptor
  }
}

package com.stalary.pf.user.controller {
  class UserController <<Controller>> {
    -userInfoService : UserInfoService
    -clientService : ClientService
    -messageClient : MessageClient
    +register() : ResponseMessage
    +login() : ResponseMessage
    +hrRegister() : ResponseMessage
    +logout() : ResponseMessage
    +getInfo() : ResponseMessage
    +getInfoByUserId() : ResponseMessage
    +updateInfo() : ResponseMessage
    +updatePhone() : ResponseMessage
  }
}

package com.stalary.pf.user.data.constant {
  class Constant {
    -SPLIT : String
    -OK : String
    -Authorization : String
    -LOGIN : String
    -LOGOUT : String
    -REGISTER : String
    -UPDATE : String
    -PASSWORD : String
    -UPDATE_PASSWORD : String
    -USER_AVATAR : String
    +getKey() : String
  }
  class RedisKeys {
    -USER_TOKEN : String
    -USER_ID : String
    -PHONE_CODE : String
    -RESUME_SEND : String
    -RESUME_RECEIVE : String
  }
}

package com.stalary.pf.user.data.dto {
  class SkillRule {
    -name : String
    -weight : Integer
  }
  class Applicant {
    -username : String
    -phone : String
    -password : String
    -email : String
    -code : String
  }
  class Recruit {
    -id : Long
    -skillList : List<SkillRule>
  }
  class User {
    -id : Long
    -username : String
    -nickname : String
    -phone : String
    -password : String
    -email : String
    -projectId : Long
    -role : Integer
    -firstId : Long
    -code : String
  }
  class HR {
    -userId : Long
    -nickname : String
    -username : String
    -password : String
    -companyId : Long
    -phone : String
    -email : String
    -code : String
  }
  class CompanyAndJob {
    -recruitId : Long
    -company : String
    -job : String
  }
  class UploadAvatar {
    -userId : Long
    -avatar : String
  }
  class RecommendUser {
    -recruitId : Long
    -userList : List<UserEs>
  }
  class ProjectInfo {
    -projectId : Long
    -key : String
  }
}

package com.stalary.pf.user.data.entity {
  class UserInfoEntity <<Entity>> {
    -id : Long
    -userId : Long
    -name : String
    -username : String
    -nickname : String
    -sex : String
    -introduce : String
    -address : String
    -intentionCompany : String
    -endTime : Integer
  }
  class UserEs {
    -userId : Long
    -name : String
    -school : String
    -education : String
    -intentionCompany : String
    -intentionJob : String
  }
}

package com.stalary.pf.user.data.vo {
  class ReceiveInfo {
    -receiveList : List<ReceiveResume>
  }
  class SendResume {
    -userId : Long
    -recruitId : Long
    -title : String
    -time : LocalDateTime
  }
  class SendInfo {
    -sendList : List<SendResume>
  }
  class ResponseMessage {
    -code : int
    -msg : String
    -success : boolean
    -data : T
    +error() : ResponseMessage
    +successMessage() : <T>ResponseMessage
    +successMessage() : ResponseMessage
    +failedMessage() : ResponseMessage
    +failedMessage() : ResponseMessage
  }
  class LoginVo {
    -token : String
    -role : Integer
    -userId : Long
    -companyId : Long
  }
  class ReceiveResume {
    -title : String
    -name : String
    -userId : Long
    -rate : Integer
    -time : LocalDateTime
  }
}

package com.stalary.pf.user.exception {
  class MyException {
    -code : Integer
  }
  class ExceptionHandle {
    +handle() : ResponseMessage
  }
  enum ResultEnum {
    -code : Integer
    -msg : String
  }
}

package com.stalary.pf.user.holder {
  class UserHolder {
    -userThreadLocal : ThreadLocal<User>
    +remove() : void
  }
  class IpHolder {
    -ipThreadLocal : ThreadLocal<String>
    +remove() : void
  }
}

package com.stalary.pf.user.interceptor {
  class LoginInterceptor {
    -clientService : ClientService
    -redis : StringRedisTemplate
    +preHandle() : boolean
    +afterCompletion() : void
  }
}

package com.stalary.pf.user.repo {
  interface UserEsRepo <<Repository>> {
  }
  interface UserInfoRepo <<Repository>> {
  }
}

package com.stalary.pf.user.service {
  class ClientService <<Service>> {
    -redis : StringRedisTemplate
    -userCenterClient : UserCenterClient
    -debug : boolean
    -projectInfo : ProjectInfo
    +genProjectInfo() : void
    +postUser() : ResponseMessage
    +getUser() : User
    +getUser() : User
  }
  class UserInfoService <<Service>> {
    -repo : UserInfoRepo
    -esRepo : UserEsRepo
    -redis : StringRedisTemplate
    -recruitClient : RecruitClient
    +uploadAvatar() : boolean
    +getInfo() : UserInfoEntity
    +getInfoByUserId() : UserInfoEntity
    +save() : UserInfoEntity
    +saveEs() : void
    +getSendList() : SendInfo
    +getReceiveList() : ReceiveInfo
    +getRecommendUser() : List<RecommendUser>
  }
}

' --- Relatii ---
CacheConfig --> MessageService
FacadeController --> WebSocketService
IdUtil --> SeqInfo
PrefixRedisSerializer --> Constant
MongoEventListener --> AutoValue
MongoEventListener --> CreateTime
MongoEventListener --> UpdateTime
MongoEventListener --> IdUtil
ResumeController --> GetResumeRate
ResumeController --> Recruit
ResumeController --> SendResume
ResumeController --> Resume
ResumeController --> ResponseMessage
ResumeController --> ResumeService
ResumeService --|> BaseService
ResumeService --> RecruitClient
ResumeService --> UserClient
ResumeService --> Constant
ResumeService --> RedisKeys
ResumeService --> Resume
ResumeService --> Skill
ResumeService --> MyException
ResumeService --> ResultEnum
ResumeService --> ResumeRepo
ResumeService --> SkillRepo
ResumeService --> IdUtil
BaseService --> BaseRepo
Skill --|> BaseEntity
Resume --|> BaseEntity
BaseEntity --> AutoValue
BaseEntity --> CreateTime
BaseEntity --> UpdateTime
ExceptionHandle --> ResponseMessage
RecruitClient --> Recruit
RecruitClient --> ResponseMessage
UserClient --> UserInfo
UserClient --> ResponseMessage
ResumeRepo --|> BaseRepo
ResumeRepo --> Resume
SkillRepo --|> BaseRepo
SkillRepo --> Skill
GatewayApplication --> ExceptionHandle
AuthFilter --> UserCenterClient
AuthFilter --> ProjectInfo
AuthFilter --> ResponseMessage
AuthFilter --> User
AuthFilter --> MyException
AuthFilter --> ResultEnum
ExceptionHandle --> ResponseMessage
UserCenterClient --> ProjectInfo
UserCenterClient --> ResponseMessage
UserCenterClient --> User
PrefixRedisSerializer --> Constant
CompanyController --> CompanyEntity
CompanyController --> ResponseMessage
CompanyController --> RecruitService
RecruitController --> SendResume
RecruitController --> RecruitEntity
RecruitController --> ResponseMessage
RecruitController --> RecruitService
RecruitController --> RecruitUtil
RecruitService --> ResumeClient
RecruitService --> UserClient
RecruitService --> Constant
RecruitService --> BaseEntity
RecruitService --> CompanyEntity
RecruitService --> RecruitEntity
RecruitService --> ExceptionThreadFactory
RecruitService --> MyException
RecruitService --> ResultEnum
RecruitService --> CompanyRepo
RecruitService --> RecruitRepo
RecruitService --> RecruitUtil
User --> HR
RecruitAndCompany --> CompanyEntity
RecruitAndCompany --> RecruitEntity
RecruitAndHrAndCompany --> CompanyEntity
RecruitAndHrAndCompany --> RecruitEntity
Candidate --> UserInfo
CompanyAndRecruit --> CompanyEntity
CompanyAndRecruit --> RecruitEntity
RecruitEntity --|> BaseEntity
RecruitEntity --> SkillRule
CompanyEntity --|> BaseEntity
ExceptionHandle --> ResponseMessage
ResumeClient --> GetResumeRate
ResumeClient --> RecruitDto
ResumeClient --> ResumeRate
ResumeClient --> ResponseMessage
UserClient --> RecommendUser
UserClient --> User
UserClient --> UserInfo
UserClient --> ResponseMessage
CompanyRepo --|> BaseRepo
CompanyRepo --> CompanyEntity
RecruitRepo --|> BaseRepo
RecruitRepo --> RecruitEntity
ResumeClient --> SendResume
MessageClient --> Message
MessageClient --> ResponseMessage
RecruitClient --> Recruit
RecruitClient --> ResponseMessage
UserClient --> ResponseMessage
UserClient --> UserInfo
OutsideClient --> Email
MessageController --> ReadMessage
MessageController --> MessageEntity
MessageController --> ResponseMessage
MessageController --> MessageService
MessageController --> UserUtil
MessageService --> PushClient
MessageService --> MessageEntity
MessageService --> MessageRepo
ResponseMessage --> ResultEnum
ExceptionHandle --> ResponseMessage
MessageRepo --> MessageEntity
PrefixRedisSerializer --> Constant
OutsideController --> Email
OutsideController --> ResponseMessage
OutsideController --> MailService
OutsideController --> SmsService
OutsideController --> UserService
OutsideController --> UserUtil
UserService --> UserClient
UserService --> Constant
UserService --> ResponseMessage
UserService --> UploadAvatar
QiNiuService --> MyException
QiNiuService --> ResultEnum
SmsService --> Constant
SmsService --> MyException
SmsService --> ResultEnum
ResponseMessage --> ResultEnum
ExceptionHandle --> ResponseMessage
UserClient --> ResponseMessage
UserClient --> UploadAvatar
BaseTest --> UserEs
BaseTest --> UserEsRepo
BaseTest --> UserInfoService
PrefixRedisSerializer --> Constant
WebConfig --> LoginInterceptor
UserController --> LoginRequired
UserController --> MessageClient
UserController --> Constant
UserController --> UserInfoEntity
UserController --> LoginVo
UserController --> ResponseMessage
UserController --> IpHolder
UserController --> UserHolder
UserController --> ClientService
UserController --> UserInfoService
UserHolder --> User
ClientService --> UserCenterClient
ClientService --> Constant
ClientService --> RedisKeys
ClientService --> Applicant
ClientService --> HR
ClientService --> ProjectInfo
ClientService --> User
ClientService --> ResponseMessage
ClientService --> MyException
ClientService --> ResultEnum
ClientService --> IpHolder
ClientService --> UserHolder
UserInfoService --> RecruitClient
UserInfoService --> Constant
UserInfoService --> RedisKeys
UserInfoService --> CompanyAndJob
UserInfoService --> RecommendUser
UserInfoService --> Recruit
UserInfoService --> UploadAvatar
UserInfoService --> UserEs
UserInfoService --> UserInfoEntity
UserInfoService --> ReceiveInfo
UserInfoService --> ReceiveResume
UserInfoService --> SendInfo
UserInfoService --> SendResume
UserInfoService --> UserHolder
UserInfoService --> UserEsRepo
UserInfoService --> UserInfoRepo
RecommendUser --> UserEs
ExceptionHandle --> ResponseMessage
UserCenterClient --> ProjectInfo
UserCenterClient --> User
UserCenterClient --> ResponseMessage
RecruitClient --> Recruit
RecruitClient --> ResponseMessage
LoginInterceptor --> LoginRequired
LoginInterceptor --> Constant
LoginInterceptor --> RedisKeys
LoginInterceptor --> User
LoginInterceptor --> MyException
LoginInterceptor --> ResultEnum
LoginInterceptor --> UserHolder
LoginInterceptor --> ClientService
UserEsRepo --> UserEs
UserInfoRepo --> UserInfoEntity

@enduml