@startuml

  class MavenWrapperDownloader {
    -WRAPPER_VERSION : String
    -DEFAULT_DOWNLOAD_URL : String
    -MAVEN_WRAPPER_PROPERTIES_PATH : String
    -MAVEN_WRAPPER_JAR_PATH : String
    -PROPERTY_NAME_WRAPPER_URL : String
    +main() : void
    +getPasswordAuthentication() : PasswordAuthentication
  }

package top.rizon.springbestpractice {
  class AppTest {
    +shouldAnswerWithTrue() : void
  }
  class AppTest {
    +shouldAnswerWithTrue() : void
  }
  class AppTest {
    +shouldAnswerWithTrue() : void
  }
}

package top.rizon.springbestpractice.auth {
  interface AuthObjMapper {
  }
  class AuthService <<Service>> {
    -userHelper : UserHelper
    +queryUserCacheable() : User
  }
  class AuthenticationInterceptor {
    -AUTH_HEADER : String
    -authService : AuthService
    -authObjMapper : AuthObjMapper
    +preHandle() : boolean
  }
  class SimpleAuthUser {
    -id : Long
    -name : String
    -token : String
    +getId() : long
    +getName() : String
    +getToken() : String
  }
}

package top.rizon.springbestpractice.common.aspect {
  class AutoRepairPageAspect {
    +methodPointcut() : void
    +doAround() : Object
  }
  class MethodLogAspect {
    +methodPointcut() : void
    +doAround() : Object
    +doAfterReturning() : void
  }
}

package top.rizon.springbestpractice.common.cache {
  class CacheHandlerInterceptor {
    -requestScopedCacheManager : RequestScopedCacheManager
    +preHandle() : boolean
    +afterCompletion() : void
  }
  class RequestScopedCacheManager {
    +getCache() : Cache
    +getCacheNames() : Collection<String>
    +clearCaches() : void
  }
}

package top.rizon.springbestpractice.common.constant {
  enum DateFormatType {
    -code : String
    -type : Integer
    +format() : String
    +format() : String
    +format() : String
    +format() : String
    +valueOfByType() : DateFormatType
    +valueOfByType() : DateFormatType
  }
}

package top.rizon.springbestpractice.common.exception {
  class AuthFailedException {
  }
  class AssertFailExceptionBase {
  }
  class BaseServerException {
    -errMessage : String
    -msgArgs : Object[]
  }
}

package top.rizon.springbestpractice.common.handler {
  class ExceptionHandlers {
    -messageSourceHandler : MessageSourceHandler
    -ERROR : String
    -SQL_ERROR : String
    -HTTP_ERROR : String
    -PARAMS_ERROR : String
    -ILLEGAL_PARAMS_ERROR : String
    -code : Integer
    -message : String
    +exceptionHandler() : Response<Object>
    +sqlExceptionHandler() : Response<Object>
    +httpMessageNotReadableExceptionHandler() : Response<Object>
    +validateExceptionHandler() : Response<Object>
    +validateExceptionHandler() : Response<Object>
    +assertExceptionHandler() : Response<Object>
    +authFailedExceptionHandler() : ResponseEntity<String>
    +baseServerExceptionHandler() : Response<Object>
  }
  class AbstractAuthHandler {
    +preHandle() : boolean
  }
  class RestClientErrorExceptionHandler {
  }
  class MessageSourceHandler {
    -request : HttpServletRequest
    -messageSource : MessageSource
    +getMessage() : String
    +getMessage() : String
  }
}

package top.rizon.springbestpractice.common.model.dto {
  interface AuthUser {
  }
}

package top.rizon.springbestpractice.common.model.request {
  class PageParam {
    -page : int
    -pageSize : int
    -totalPage : long
    -totalRecord : long
  }
  class BaseReqParam {
    -pageParam : PageParam
  }
}

package top.rizon.springbestpractice.common.model.response {
  class Response {
    -ERR_MESSAGE_LENGTH : Integer
    -CODE_SUCCESS : int
    -CODE_FAILURE : int
    -CODE_AUTH_FAILURE : int
    -MESSAGE_SUCCESS : String
    -MESSAGE_FAILURE : String
    -status : int
    -message : String
    -closeExStack : boolean
    -errMessage : String
    +setCloseExStack() : void
    +getRequestId() : String
    +getWarnMsg() : String
    +getErrMessage() : String
    +setResult() : void
    +getResult() : T
    +getStatus() : int
    +getMessage() : String
  }
  class PageResponse {
    -pagination : PageParam
  }
}

package top.rizon.springbestpractice.common.utils {
  class StreamUtilTest {
    -name : String
    -location : String
    -age : Integer
    -sex : String
    +base() : void
    +list2Map() : void
    +reduce() : void
    +parallel() : void
  }
  class MapUtilsTest {
    +flatMap() : void
    +formatMap() : void
  }
  class ResponseUtil {
    -ERROR_MSG : ThreadLocal<String>
    +setThreadErrorMsg() : void
    +getErrorMsg() : String
    +appendThreadErrorMsg() : void
    +popErrorMsg() : String
  }
  class ObjUtil {
  }
  class MapUtils {
  }
  class Assert {
    +isTrue() : void
    +notEmpty() : void
    +notBlank() : void
    +notNull() : void
    +requiredNotEmpty() : String
    +requiredNotBlank() : String
    +oneOrEmpty() : void
  }
  class StreamUtil {
  }
  class DataDate {
    -DATA_DATE_FORMAT : String
    -MOCK_CUR_TIME : String
    -fastTodayTime : Long
    +of() : DataDate
    +of() : DataDate
    +of() : DataDate
    +isToday() : boolean
    +isToday() : boolean
    +now() : DataDate
    +toQuery() : String
    +toEsId() : String
  }
  class DateTimeUtils {
    -YYYYMMDDHHMMSS : String
    -YYYYMMDDHHMM : String
    -YYYYMMDDHHMM_ZH : String
    -YYYYMMDD_ZH : String
    -YYYYMMDDHHMMSS_ZH : String
    -YYYYMMDD : String
    -YYYYMM : String
    -YYYYMM_NOLINE : String
    -YYYYMM_ZH : String
    -YYYY : String
    +parse() : Date
    +format() : String
    +getMaxDayOfMonth() : int
    +getLastDayOfMonth() : Date
    +getFirstDayOfMonth() : Date
  }
  class TraceUtils {
    -TRACE_KEY : String
    -TRACE_ID_LENGTH : int
    +beginTaskTrace() : void
    +endTaskTrace() : void
    +getTraceId() : String
    +randomTraceId() : String
  }
  class ExceptionUtils {
    +rootCauseToString() : String
    +rootCauseToString() : String
  }
  class AuthUtil {
    -USER_KEY : String
    +setAuthUser() : void
    +authUserOrFailed() : AuthUser
    +getAuthUser() : AuthUser
  }
  class JacksonUtil {
    -OBJECT_MAPPER : ObjectMapper
    +toJsonString() : String
  }
}

package top.rizon.springbestpractice.common.utils.http {
  class BaseAuthHeaderHttpRequestInterceptor {
    -PATH_MATCHER : AntPathMatcher
    +intercept() : ClientHttpResponse
    +process() : void
    +includePathPatterns() : List<String>
  }
  class SimpleRestTemplateUtils {
    -DEFAULT_ERROR_HANDLER : RestClientErrorExceptionHandler
    -connectTimeout : Integer
    -readTimeout : Integer
    -restTemplate : RestTemplate
    +restTemplate() : RestTemplate
    +simpleClientHttpRequestFactory() : ClientHttpRequestFactory
    +responseCheck() : void
  }
  class RestTemplateAuthConfig {
    -applicationContext : ApplicationContext
    -restTemplate : RestTemplate
    +setApplicationContext() : void
    +afterPropertiesSet() : void
  }
}

package top.rizon.springbestpractice.dao.config {
  class MybatisPlusConfig {
    +paginationInterceptor() : PaginationInterceptor
    +performanceInterceptor() : PerformanceInterceptor
  }
}

package top.rizon.springbestpractice.dao.helper {
  interface UserHelper {
  }
}

package top.rizon.springbestpractice.dao.helper.impl {
  class UserHelperImpl <<Service>> {
  }
}

package top.rizon.springbestpractice.dao.mapper {
  interface HistoryMapper {
  }
  interface UserMapper {
  }
}

package top.rizon.springbestpractice.dao.po {
  class HistoryPo {
    -serialVersionUID : long
    -id : Long
    -data : String
    -createTime : LocalDateTime
  }
  class User {
    -serialVersionUID : long
    -id : Long
    -name : String
    -age : Integer
    -email : String
    -token : String
  }
}

package top.rizon.springbestpractice.dao.utils.dynamictblname {
  class DynamicTableNameUtils {
    -HISTORY_FAKE_TABLE_NAME : String
    -LOCAL_TABLE_NAME : ThreadLocal<DynamicTableNameParam>
    -fakeTblName : String
    -realTblName : String
    +registerDynamicTableName() : void
    +startTableName() : void
    +startHistoryTableName() : void
    +endTableName() : void
  }
  class TableNameParser {
    -NO_INDEX : int
    -SPACE : String
    -REGEX_SPACE : String
    -TOKEN_ORACLE_HINT_START : String
    -TOKEN_ORACLE_HINT_END : String
    -TOKEN_SINGLE_LINE_COMMENT : String
    -TOKEN_NEWLINE : String
    -TOKEN_SEMI_COLON : String
    -TOKEN_PARAN_START : String
    -TOKEN_COMMA : String
    +tables() : Collection<String>
  }
  interface ITableNameHandler {
  }
  class DynamicTableNameParser {
    +parser() : SqlInfo
    +allowProcess() : boolean
  }
}

package top.rizon.springbestpractice.web {
  class DemoApplicationTests {
    +contextLoads() : void
  }
  class DemoApplication {
    +main() : void
  }
}

package top.rizon.springbestpractice.web.config {
  class ServerInitConfig {
    -config : BaseServerConfig
    -closeExStack : boolean
    +afterPropertiesSet() : void
  }
  interface InitConfig {
  }
  class CachingConfig {
    -expireDuration : Duration
    +cacheManager() : CacheManager
  }
  class AppInitConfig {
    +onApplicationEvent() : void
  }
  class WebConfig {
    +requestScopedCacheManager() : RequestScopedCacheManager
    +cacheHandlerInterceptor() : CacheHandlerInterceptor
    +requestInterceptor() : RequestInterceptor
    +addInterceptors() : void
    +preHandle() : boolean
    +afterCompletion() : void
  }
  class AsyncThreadPoolConfig {
    -corePoolSize : Integer
    -maxPoolSize : Integer
    -keepAliveTime : Integer
    -queueCapacity : Integer
    -threadNamePrefix : String
    +asyncTaskExecutor() : ThreadPoolTaskExecutor
  }
}

package top.rizon.springbestpractice.web.config.auth {
  class RestTemplateAuthInterceptor {
    +process() : void
    +includePathPatterns() : List<String>
  }
  class AuthWebConfig {
    -authHandler : AbstractAuthHandler
    -authConf : AuthConf
    -excludePath : List<String>
    +addInterceptors() : void
  }
}

package top.rizon.springbestpractice.web.config.demo {
  class DemoInit {
    +init() : void
  }
}

package top.rizon.springbestpractice.web.controller {
  class DemoController <<Controller>> {
    -aopService : AopExampleService
    -date : DataDate
    -formatType : DateFormatType
    +formatDate() : Response<String>
  }
  class CacheExampleController <<Controller>> {
    -service : CacheExampleService
  }
  class SqlExampleController <<Controller>> {
    -service : SqlExampleService
  }
  class HttpController <<Controller>> {
    +requestResult() : Response<String>
  }
  class ServerHealthController <<Controller>> {
    -versionInfo : VersionInfo
    -version : String
    -buildTimestamp : String
    -scmVersion : String
    -status : int
    -message : String
    -serverTime : Date
    +ping() : String
    +healthController() : ServerHealthResponse
    +buildVersion() : VersionInfo
  }
  class UserController <<Controller>> {
    -userHelper : UserHelper
    -webObjMapper : WebObjMapper
    +list() : Response<List<UserVo>>
  }
}

package top.rizon.springbestpractice.web.model {
  interface WebObjMapper {
  }
}

package top.rizon.springbestpractice.web.model.param {
  class UserQueryParam {
    -emailLike : String
  }
}

package top.rizon.springbestpractice.web.model.vo {
  class UserVo {
    -id : Long
    -name : String
    -age : Integer
    -email : String
    -loginToken : String
  }
  class CacheExampleVo {
    -uuid : String
    -timestamp : long
  }
}

package top.rizon.springbestpractice.web.service {
  class SqlExampleService <<Service>> {
    -historyMapper : HistoryMapper
    +selectHistoryByDate() : List<HistoryPo>
  }
  class AopExampleService <<Service>> {
    +sleepMethod() : String
  }
  class CacheExampleService <<Service>> {
    -MANUAL_CACHE_KEY : String
    +init() : void
    +requestScopedByAnnotation() : List<CacheExampleVo>
    +expireCache() : List<CacheExampleVo>
  }
}

' --- Relatii ---
AuthObjMapper --> User
AuthService --> UserHelper
AuthService --> User
AuthenticationInterceptor --|> AbstractAuthHandler
AuthenticationInterceptor --> AuthFailedException
AuthenticationInterceptor --> AbstractAuthHandler
AuthenticationInterceptor --> AuthUtil
AuthenticationInterceptor --> User
SimpleAuthUser ..|> AuthUser
SimpleAuthUser --> AuthUser
ServerInitConfig --> Response
WebConfig --> CacheHandlerInterceptor
WebConfig --> RequestScopedCacheManager
WebConfig --> AuthUser
WebConfig --> AuthUtil
WebConfig --> TraceUtils
DemoInit ..|> InitConfig
DemoInit --> InitConfig
RestTemplateAuthInterceptor --|> BaseAuthHeaderHttpRequestInterceptor
RestTemplateAuthInterceptor --> AuthUtil
RestTemplateAuthInterceptor --> BaseAuthHeaderHttpRequestInterceptor
AuthWebConfig --> AbstractAuthHandler
DemoController --> DateFormatType
DemoController --> Response
DemoController --> DataDate
DemoController --> AopExampleService
CacheExampleController --> Response
CacheExampleController --> CacheExampleService
SqlExampleController --> PageParam
SqlExampleController --> PageResponse
SqlExampleController --> Response
SqlExampleController --> DataDate
SqlExampleController --> SqlExampleService
HttpController --> Response
HttpController --> SimpleRestTemplateUtils
HttpController --> RestTemplateAuthInterceptor
ServerHealthController --> DateTimeUtils
UserController --> AutoRepairPageAspect
UserController --> PageParam
UserController --> PageResponse
UserController --> Response
UserController --> UserHelper
UserController --> User
UserController --> WebObjMapper
UserController --> UserQueryParam
UserController --> UserVo
WebObjMapper --> User
WebObjMapper --> UserVo
UserQueryParam --|> BaseReqParam
UserQueryParam --> BaseReqParam
SqlExampleService --> PageParam
SqlExampleService --> DataDate
SqlExampleService --> HistoryMapper
SqlExampleService --> HistoryPo
SqlExampleService --> DynamicTableNameUtils
SqlExampleService --> UserController
CacheExampleService --> BaseServerException
CacheExampleService --> CacheExampleVo
MybatisPlusConfig --> DynamicTableNameUtils
HistoryMapper --> HistoryPo
UserMapper --> User
DynamicTableNameUtils --> BaseServerException
DynamicTableNameUtils --> DataDate
DynamicTableNameUtils --> DateTimeUtils
DynamicTableNameParser --> Assert
UserHelper --> User
UserHelperImpl --> UserHelper
UserHelperImpl --> UserMapper
UserHelperImpl --> User
MapUtilsTest --> Assert
ExceptionHandlers --> AssertFailExceptionBase
ExceptionHandlers --> AuthFailedException
ExceptionHandlers --> BaseServerException
ExceptionHandlers --> Response
ExceptionHandlers --> ExceptionUtils
RestClientErrorExceptionHandler --> BaseServerException
Assert --> AssertFailExceptionBase
Assert --> BaseServerException
DataDate --> BaseServerException
DateTimeUtils --> BaseServerException
AuthUtil --> AuthFailedException
AuthUtil --> AuthUser
JacksonUtil --> BaseServerException
SimpleRestTemplateUtils --> BaseServerException
SimpleRestTemplateUtils --> RestClientErrorExceptionHandler
SimpleRestTemplateUtils --> Response
SimpleRestTemplateUtils --> ObjUtil
DateFormatType --> BaseServerException
DateFormatType --> DataDate
DateFormatType --> DateTimeUtils
Response --> BaseServerException
Response --> ResponseUtil
Response --> TraceUtils
PageResponse --> PageParam
AutoRepairPageAspect --> PageResponse
AuthFailedException --|> BaseServerException
AssertFailExceptionBase --|> BaseServerException

@enduml