@startuml

package com.xpinjection.library {
  class LocalLibraryApplication {
    +main() : void
  }
  class StandaloneApplicationContextInitializer {
    +initialize() : void
  }
  class HexagonalDesignRules {
    -DOMAIN : String
    -SERVICE : String
    -SERVICE_IMPL : String
    -ADAPTOR_API : String
    -ADAPTOR_UI : String
    -ADAPTOR_PERSISTENCE : String
    -CONFIG : String
  }
  class CodingConventionRules {
  }
  interface RuntimeDependencies {
  }
  class LibraryApplication {
    +main() : void
  }
}

package com.xpinjection.library.adaptors.api {
  class OpenApi {
    -HOST : String
    -staticApiPath : String
    -generatedApiPath : String
    +validate() : void
    +export() : void
  }
  class ApiReports {
    +clean() : void
  }
  class BookRestControllerIntegrationTest {
    -mockMvc : MockMvc
    -bookService : BookService
    -books : List<BookDto>
  }
  class ExpertApiTest {
    +ifExpertHasValidParamsAndRecommendationsThenItIsStored() : void
    +bookInitializer() : CommandLineRunner
  }
  class AbstractApiTest {
    -REPORTS : ApiReports
    -OPEN_API : OpenApi
    -port : int
    -swaggerConfig : SwaggerUiConfigProperties
    +given() : RequestSpecification
  }
  class BookApiTest {
  }
  class ExpertRestControllerIntegrationTest {
    -NAME : String
    -CONTACT : String
    -RECOMMENDATIONS : String
    -mockMvc : MockMvc
    -service : ExpertService
  }
  class ExpertRestController <<Controller>> {
    -service : ExpertService
  }
  class BookRestController <<Controller>> {
    -bookService : BookService
  }
  class CommonErrorHandler {
  }
}

package com.xpinjection.library.adaptors.api.dto {
  class NewExpert {
  }
}

package com.xpinjection.library.adaptors.api.pact {
  class BookApiPactTest {
    -mockMvc : MockMvc
    -bookService : BookService
    +consumerVersionSelectors() : List<ConsumerVersionSelectors>
  }
}

package com.xpinjection.library.adaptors.persistence {
  class BookDaoTest {
    +provide() : IDataSet
    +provide() : IDataSet
  }
  class AbstractDaoTest {
    -ID : long
    -jdbcTemplate : JdbcTemplate
    -em : TestEntityManager
    -dao : D
    +addRecordToDatabase() : long
  }
  class ExpertDaoTest {
  }
  interface ExpertDao {
  }
  interface BookDao {
  }
}

package com.xpinjection.library.adaptors.persistence.entity {
  class ExpertEntity <<Entity>> {
    -id : Long
    -name : String
    -contact : String
    -recommendations : Set<Book>
  }
}

package com.xpinjection.library.adaptors.ui {
  class BookControllerIntegrationTest {
    -mockMvc : MockMvc
    -bookService : BookService
  }
  class BookUITest {
    -context : WebApplicationContext
    -webClient : WebClient
  }
  class BookControllerTest {
    -bookService : BookService
    -controller : BookController
    -mockMvc : MockMvc
    -books : List<BookDto>
  }
  class BookController <<Controller>> {
    -bookService : BookService
  }
}

package com.xpinjection.library.config {
  class DemoRunner {
    -bookService : BookService
    +run() : void
  }
  class ActuatorBasicSecurityConfig {
    +filterChain() : SecurityFilterChain
  }
  class LogstashLogbookConfig {
  }
  class LibrarySettings {
    -size : int
  }
  class ApiConfig {
  }
  class DefaultLibraryInitializer {
    -bookService : BookService
    -settings : LibrarySettings
    +run() : void
  }
}

package com.xpinjection.library.config.init {
  class ApplicationStartedWithoutActiveProfileException {
  }
  class ActiveProfilesChecker {
    +onApplicationEvent() : void
  }
  class ActiveProfileMissedFailureAnalyzer {
    +analyze() : FailureAnalysis
  }
  class HttpServerPortLogger {
    +onApplicationEvent() : void
  }
}

package com.xpinjection.library.domain {
  class Book <<Entity>> {
    -id : Long
    -name : String
    -author : String
  }
}

package com.xpinjection.library.service {
  class ExpertServiceTest {
    -service : ExpertService
    -bookDao : BookDao
    -expertDao : ExpertDao
    -expert : CreateExpertDto
    -entity : ExpertEntity
  }
  class BookServiceTest {
    -dao : BookDao
    -bookService : BookService
  }
  interface ExpertService {
  }
  interface BookService {
  }
}

package com.xpinjection.library.service.dto {
  class BookDto {
    -id : Long
    -name : String
    -author : String
  }
  class Recommendation {
  }
  class Books {
    +fromMap() : Books
    +empty() : Books
  }
  class CreateExpertDto {
    -name : String
    -contact : String
    -recommendations : Set<Recommendation>
    +addRecommendations() : void
  }
}

package com.xpinjection.library.service.exception {
  class InvalidRecommendationException {
  }
}

package com.xpinjection.library.service.impl {
  class ExpertServiceImpl <<Service>> {
    -bookDao : BookDao
    -expertDao : ExpertDao
    +addExpert() : long
  }
  class BookServiceImpl <<Service>> {
    -bookDao : BookDao
    -cache : Cache
    +addBooks() : List<BookDto>
    +findBooksByAuthor() : List<BookDto>
    +findAllBooks() : List<BookDto>
    +toDto() : BookDto
  }
}

' --- Relatii ---
HexagonalDesignRules --> LibrarySettings
BookControllerIntegrationTest --> ActuatorBasicSecurityConfig
BookControllerIntegrationTest --> BookService
BookControllerIntegrationTest --> BookDto
BookUITest --> RuntimeDependencies
BookControllerTest --> BookService
BookControllerTest --> BookDto
BookDaoTest --|> AbstractDaoTest
BookDaoTest --> Book
AbstractDaoTest --> RuntimeDependencies
ExpertDaoTest --|> AbstractDaoTest
ExpertDaoTest --> ExpertEntity
ExpertDaoTest --> Book
BookRestControllerIntegrationTest --> ActuatorBasicSecurityConfig
BookRestControllerIntegrationTest --> BookService
BookRestControllerIntegrationTest --> BookDto
ExpertApiTest --|> AbstractApiTest
ExpertApiTest --> BookService
ExpertApiTest --> Books
AbstractApiTest --> RuntimeDependencies
BookApiTest --|> AbstractApiTest
ExpertRestControllerIntegrationTest --> ActuatorBasicSecurityConfig
ExpertRestControllerIntegrationTest --> ExpertService
ExpertRestControllerIntegrationTest --> CreateExpertDto
ExpertRestControllerIntegrationTest --> Recommendation
ExpertRestControllerIntegrationTest --> InvalidRecommendationException
BookApiPactTest --> BookRestController
BookApiPactTest --> ActuatorBasicSecurityConfig
BookApiPactTest --> BookService
BookApiPactTest --> BookDto
ExpertServiceTest --> BookDao
ExpertServiceTest --> ExpertDao
ExpertServiceTest --> ExpertEntity
ExpertServiceTest --> Book
ExpertServiceTest --> CreateExpertDto
ExpertServiceTest --> Recommendation
ExpertServiceTest --> InvalidRecommendationException
ExpertServiceTest --> ExpertServiceImpl
BookServiceTest --> BookDao
BookServiceTest --> Book
BookServiceTest --> Books
BookServiceTest --> BookServiceImpl
LibraryApplication --> LibrarySettings
DemoRunner --> BookService
DemoRunner --> Books
DefaultLibraryInitializer --> BookService
DefaultLibraryInitializer --> Books
BookController --> BookService
ExpertDao --> ExpertEntity
BookDao --> Book
ExpertEntity --> Book
ExpertRestController --> NewExpert
ExpertRestController --> ExpertService
ExpertRestController --> CreateExpertDto
ExpertRestController --> InvalidRecommendationException
BookRestController --> BookService
BookRestController --> BookDto
ExpertService --> CreateExpertDto
BookService --> BookDto
BookService --> Books
ExpertServiceImpl ..|> ExpertService
ExpertServiceImpl --> BookDao
ExpertServiceImpl --> ExpertDao
ExpertServiceImpl --> ExpertEntity
ExpertServiceImpl --> Book
ExpertServiceImpl --> ExpertService
ExpertServiceImpl --> CreateExpertDto
ExpertServiceImpl --> Recommendation
ExpertServiceImpl --> InvalidRecommendationException
BookServiceImpl ..|> BookService
BookServiceImpl --> BookDao
BookServiceImpl --> Book
BookServiceImpl --> BookService
BookServiceImpl --> BookDto
BookServiceImpl --> Books

@enduml